<svg xmlns="http://www.w3.org/2000/svg" viewBox="0 0 96 96" fill="none">
  <defs>
    <linearGradient id="s" x1="48" y1="14" x2="48" y2="84" gradientUnits="userSpaceOnUse">
      <stop offset="0" stop-color="#FF7A45"/><stop offset="0.45" stop-color="#F5402C"/><stop offset="1" stop-color="#C2160C"/>
    </linearGradient>
    <linearGradient id="w" x1="0" y1="0" x2="0" y2="1">
      <stop offset="0" stop-color="#FF6A3D"/><stop offset="1" stop-color="#D81E10"/>
    </linearGradient>
  </defs>
  <rect width="96" height="96" rx="20" fill="#0a0b0d"/>
  <g stroke="url(#w)" stroke-width="5" stroke-linecap="round" fill="none">
    <path d="M30 30 Q20 48 30 66" opacity="0.95"/><path d="M21 24 Q7 48 21 72" opacity="0.6"/>
    <path d="M66 30 Q76 48 66 66" opacity="0.95"/><path d="M75 24 Q89 48 75 72" opacity="0.6"/>
  </g>
  <path d="M48 13 L73 21 C74 21 74 22 74 23 C74 38 73 47 70 54 C66 64 58 71 48 76 C38 71 30 64 26 54 C23 47 22 38 22 23 C22 22 22 21 23 21 Z" fill="url(#s)"/>
  <path d="M44.4 30 C44.4 28 45.9 26.5 48 26.5 C50.1 26.5 51.6 28 51.5 30 L50.4 49 C50.3 50.4 49.3 51.4 48 51.4 C46.7 51.4 45.7 50.4 45.6 49 Z" fill="#fff"/>
  <rect x="44.3" y="55.5" width="7.4" height="7.4" rx="2.4" fill="#fff"/>
</svg>
